<svg xmlns="http://www.w3.org/2000/svg" width="227.48" height="33.059" viewBox="0 0 227.48 33.059"><defs><style>.a{fill:#24c599;}</style></defs><g transform="translate(-161.806 -304.115)"><path class="a" d="M292.665,330.118V318.394l8.841-8.841,17.66,19.7,17.9-19.7,8.841,8.553v12.013l-8.073,6.919V321.084l-18.548,21.527-18.74-21.527v15.761Z" transform="translate(-130.859 -5.437)"/><g transform="translate(235.615 313.335)"><path d="M112.615,417.626h6.327l2.44,9.473,2.423-9.473h6.323V433.2h-3.94V421.322L123.152,433.2h-3.566l-3.03-11.874V433.2h-3.94Z" transform="translate(-112.615 -417.626)"/><path d="M193.158,417.626h12.893v3.324H197.98v2.475h7.487V426.6H197.98v3.069h8.305V433.2H193.158Z" transform="translate(-167.236 -417.626)"/><path d="M258.82,433.2V417.626h8.018a11.65,11.65,0,0,1,3.409.382,3.63,3.63,0,0,1,1.9,1.418,4.4,4.4,0,0,1-1.35,6.282,5.818,5.818,0,0,1-1.69.616,4.8,4.8,0,0,1,1.253.575,4.872,4.872,0,0,1,.77.818,6.115,6.115,0,0,1,.674.967l2.33,4.512H268.7l-2.572-4.758a3.633,3.633,0,0,0-.871-1.2,2.021,2.021,0,0,0-1.179-.361h-.425V433.2Zm4.832-9.261h2.028a7.226,7.226,0,0,0,1.274-.213,1.272,1.272,0,0,0,.781-.489,1.577,1.577,0,0,0-.175-2.06,2.891,2.891,0,0,0-1.795-.4h-2.114Z" transform="translate(-211.766 -417.626)"/><path d="M327.781,417.626h12.893v3.324H332.6v2.475h7.487V426.6H332.6v3.069h8.3V433.2H327.781Z" transform="translate(-258.532 -417.626)"/><path d="M393.343,417.626h4.492l5.862,8.614v-8.614h4.535V433.2H403.7l-5.83-8.549V433.2h-4.524Z" transform="translate(-302.994 -417.626)"/><path d="M462.765,417.626h14.624v3.844h-4.906V433.2h-4.811V421.47h-4.906Z" transform="translate(-350.073 -417.626)"/><path d="M532.188,417.626h4.822V433.2h-4.822Z" transform="translate(-397.153 -417.626)"/><path d="M575.114,417.626h4.821V433.2h-4.821Z" transform="translate(-426.264 -417.626)"/></g></g></svg>