<svg xmlns="http://www.w3.org/2000/svg" width="175.661" height="39.206" viewBox="0 0 175.661 39.206"><defs><style>.a{font-size:6px;font-family:Montserrat-SemiBold, Montserrat;font-weight:600;}.b{fill:#8c8c8c;}.c{fill:#24c599;}</style></defs><g transform="translate(-232.833 -730.501)"><g transform="translate(284.023 735.516)"><g transform="translate(0)"><path d="M359.134,767.377v-7.671a2.213,2.213,0,0,0-2.518-2.489h-2.343v10.16h-4.86v-10.16h-4.8v10.16h-4.919V752.766h17.041a7.4,7.4,0,0,1,5.446,1.815,6.973,6.973,0,0,1,1.816,5.154v7.642Z" transform="translate(-339.692 -747.115)"/><path d="M403.22,767.377a9.012,9.012,0,0,1-3.133-.527,7.419,7.419,0,0,1-2.489-1.493,6.746,6.746,0,0,1-1.64-2.313,7.831,7.831,0,0,1,0-5.944,6.752,6.752,0,0,1,1.64-2.313,7.419,7.419,0,0,1,2.489-1.493,9.022,9.022,0,0,1,3.133-.527h3.719a6.248,6.248,0,0,1,2.2.351,4.447,4.447,0,0,1,1.566.966,3.833,3.833,0,0,1,.937,1.479,5.593,5.593,0,0,1,.307,1.888,3.632,3.632,0,0,1-1.112,2.9,5.554,5.554,0,0,1-3.66.967h-5.212v-2.665h4.187q1.143,0,1.142-1.025a.971.971,0,0,0-1.113-1.083h-2.986a2.746,2.746,0,0,0-2.138.907,3.713,3.713,0,0,0-.82,2.577,3.437,3.437,0,0,0,.82,2.5,2.863,2.863,0,0,0,2.138.834h7.964v4.011Z" transform="translate(-368.699 -747.115)"/><path d="M434.858,767.377v-7.642a6.905,6.905,0,0,1,1.845-5.154,7.458,7.458,0,0,1,5.446-1.815h4.1v4.45h-3.982a2.213,2.213,0,0,0-2.518,2.489v7.671Z" transform="translate(-389.27 -747.115)"/><path d="M469.6,767.377a9.012,9.012,0,0,1-3.133-.527,7.419,7.419,0,0,1-2.489-1.493,6.74,6.74,0,0,1-1.64-2.313,7.831,7.831,0,0,1,0-5.944,6.745,6.745,0,0,1,1.64-2.313,7.419,7.419,0,0,1,2.489-1.493,9.022,9.022,0,0,1,3.133-.527h3.719a6.248,6.248,0,0,1,2.2.351,4.448,4.448,0,0,1,1.566.966,3.839,3.839,0,0,1,.937,1.479,5.6,5.6,0,0,1,.307,1.888,3.632,3.632,0,0,1-1.112,2.9,5.553,5.553,0,0,1-3.66.967h-5.212v-2.665h4.187q1.142,0,1.142-1.025a.971.971,0,0,0-1.113-1.083h-2.986a2.746,2.746,0,0,0-2.138.907,3.713,3.713,0,0,0-.82,2.577,3.437,3.437,0,0,0,.82,2.5,2.864,2.864,0,0,0,2.138.834h7.964v4.011Z" transform="translate(-403.28 -747.115)"/><path d="M513.9,767.377v-7.671a2.227,2.227,0,0,0-2.548-2.489h-4.89v10.16h-4.919V752.766h9.926a7.5,7.5,0,0,1,5.475,1.815,6.905,6.905,0,0,1,1.845,5.154v7.642Z" transform="translate(-424.009 -747.115)"/><path d="M548.617,762.855a5.287,5.287,0,0,1-4-1.391,5.505,5.505,0,0,1-1.332-3.967v-13.41h4.86v4.158H554v4.041h-5.856v4.831a1.526,1.526,0,0,0,1.727,1.727h3.982v4.011Z" transform="translate(-445.757 -742.593)"/><path d="M573.384,745.186a2.286,2.286,0,0,1-1.6-.571,2.007,2.007,0,0,1-.629-1.566,1.937,1.937,0,0,1,.629-1.508,2.286,2.286,0,0,1,1.6-.571h.674a2.232,2.232,0,0,1,1.581.571,1.961,1.961,0,0,1,.615,1.508,2.032,2.032,0,0,1-.615,1.566,2.232,2.232,0,0,1-1.581.571Zm-2.137,16.046V746.62h4.89v14.611Z" transform="translate(-460.277 -740.969)"/><path d="M590.07,745.186a2.285,2.285,0,0,1-1.6-.571,2.007,2.007,0,0,1-.63-1.566,1.937,1.937,0,0,1,.63-1.508,2.285,2.285,0,0,1,1.6-.571h.673a2.233,2.233,0,0,1,1.581.571,1.961,1.961,0,0,1,.615,1.508,2.032,2.032,0,0,1-.615,1.566,2.233,2.233,0,0,1-1.581.571Zm-2.137,16.046V746.62h4.89v14.611Z" transform="translate(-468.969 -740.969)"/></g><text class="a" transform="translate(52.471 30.459)"><tspan x="0" y="0">Let’s keep you moving!</tspan></text></g><path class="b" d="M350.4,771.4l.006-.059h.814A1.928,1.928,0,0,1,350.4,771.4Z" transform="translate(-61.249 -21.278)"/><path class="b" d="M357.456,771.345l.006.059a1.921,1.921,0,0,1-.82-.059Z" transform="translate(-64.499 -21.278)"/><g transform="translate(232.833 730.501)"><path d="M260.05,730.5h1.09a1.744,1.744,0,0,0,.384.018,15.772,15.772,0,0,1,3.549.462,19.641,19.641,0,0,1,8.062,4.009,18.3,18.3,0,0,1,1.408,1.281,19.722,19.722,0,0,1,3.192,4.241c.043.078.127.159.04.262a.52.52,0,0,1-.251.034H273.63a.577.577,0,0,1-.267-.036,4.029,4.029,0,0,1-.44-.539,13.1,13.1,0,0,0-1.143-1.283,16.159,16.159,0,0,0-3.656-2.731,15.718,15.718,0,0,0-4.568-1.627,16.353,16.353,0,0,0-1.872-.238,17.043,17.043,0,0,0-1.922-.019,14.481,14.481,0,0,0-2.627.356,15.6,15.6,0,0,0-3.752,1.358,15.773,15.773,0,0,0-3.224,2.2,16.13,16.13,0,0,0-2.172,2.34.681.681,0,0,1-.159.177.559.559,0,0,1-.267.037H243.67a.562.562,0,0,1-.25-.031c-.1-.106,0-.192.04-.273q.381-.685.816-1.336a20.083,20.083,0,0,1,1.794-2.288,19.516,19.516,0,0,1,2.431-2.25,19.76,19.76,0,0,1,2.954-1.909,19.44,19.44,0,0,1,6.379-2.062,13.759,13.759,0,0,1,1.829-.139A1.76,1.76,0,0,0,260.05,730.5Z" transform="translate(-238.326 -730.501)"/><path class="c" d="M272.305,751.818a.061.061,0,0,0,.031,0,.307.307,0,0,0,.182.018h4.631a.514.514,0,0,1,.188.012c.022.076-.034.127-.067.182q-.909,1.568-1.82,3.133c-.294.5-.592,1.007-.881,1.515a.252.252,0,0,1-.256.139q-4.912-.006-9.824,0a.736.736,0,0,1-.1,0,.186.186,0,0,0-.2.11c-.2.33-.409.654-.615.981L255.2,771.231c-.03.047-.062.094-.1.147a.261.261,0,0,1-.094-.115q-3.984-6.339-7.967-12.679c-.341-.543-.684-1.085-1.017-1.632a.27.27,0,0,0-.271-.147c-3.263,0-6.526,0-9.79.009a.416.416,0,0,1-.419-.247c-.595-1.051-1.2-2.1-1.8-3.142l-.849-1.474-.054-.1a.481.481,0,0,1,.205-.019h4.649a.308.308,0,0,0,.182-.018.058.058,0,0,0,.03,0,.3.3,0,0,0,.166.02h4.1a.368.368,0,0,0,.183-.022.864.864,0,0,1,.186-.015c1.952,0,3.9,0,5.857,0a.471.471,0,0,1,.46.267c1.228,2.075,2.472,4.142,3.71,6.212q1.2,2.008,2.408,4.015a.564.564,0,0,1,.111.232l4.288-7.148c.666-1.109,1.335-2.217,1.994-3.33a.445.445,0,0,1,.438-.246c1.958.006,3.916,0,5.874,0a.861.861,0,0,1,.186.015.369.369,0,0,0,.183.022h4.1A.3.3,0,0,0,272.305,751.818Z" transform="translate(-232.833 -741.595)"/><path d="M258.792,788.083a.791.791,0,0,0-.1-.01q-.688.019-1.376,0a.8.8,0,0,0-.1.01,18.084,18.084,0,0,1-2.57-.268,19.331,19.331,0,0,1-4.917-1.54,19.552,19.552,0,0,1-11.213-15.669,20.364,20.364,0,0,1-.086-3.179c.023-.493.072-.984.135-1.474.007-.056.02-.111.031-.171h3.776a1.4,1.4,0,0,1-.044.4,16.138,16.138,0,0,0-.134,3.327,15.628,15.628,0,0,0,.93,4.445,15.844,15.844,0,0,0,30.624-3.648,16.405,16.405,0,0,0,.088-2.516,14.257,14.257,0,0,0-.185-1.81.533.533,0,0,1-.014-.185c.126-.023,3.588-.028,3.781,0,.05.254.072.514.1.773a19.994,19.994,0,0,1,.078,2.721,19.409,19.409,0,0,1-1.207,6.045,19.635,19.635,0,0,1-13.228,12.092,18.608,18.608,0,0,1-2.988.564C259.709,788.031,259.252,788.076,258.792,788.083Z" transform="translate(-235.734 -748.876)"/></g></g></svg>