<svg xmlns="http://www.w3.org/2000/svg" width="19.381" height="18.862" viewBox="0 0 19.381 18.862"><defs><style>.a{opacity:0.998;}.b{fill:#24c599;}</style></defs><g class="a" transform="translate(0)"><g transform="translate(0)"><ellipse class="b" cx="0.674" cy="0.984" rx="0.674" ry="0.984" transform="translate(14.161 6.832)"/><path class="b" d="M16.353,1.474h-.984V.737a.757.757,0,0,0-1.514,0v.737H10.41V.737A.757.757,0,0,0,8.9.737v.737H5.489V.737a.757.757,0,0,0-1.514,0v.737H3.028A2.992,2.992,0,0,0,0,4.421V15.915a2.992,2.992,0,0,0,3.028,2.947H8.82a.737.737,0,1,0,0-1.474H3.028a1.5,1.5,0,0,1-1.514-1.474V4.421A1.5,1.5,0,0,1,3.028,2.947h.946v.737a.757.757,0,0,0,1.514,0V2.947H8.9v.737a.757.757,0,0,0,1.514,0V2.947h3.445v.737a.757.757,0,0,0,1.514,0V2.947h.984a1.5,1.5,0,0,1,1.514,1.474v4.2a.757.757,0,0,0,1.514,0v-4.2A2.992,2.992,0,0,0,16.353,1.474Z" transform="translate(0 0)"/><path class="b" d="M274.58,270a4.459,4.459,0,1,0,4.58,4.458A4.525,4.525,0,0,0,274.58,270Zm0,7.442a2.985,2.985,0,1,1,3.066-2.984A3.029,3.029,0,0,1,274.58,277.442Z" transform="translate(-259.779 -260.053)"/><path class="b" d="M372.855,331.51h-.341v-.774a.757.757,0,0,0-1.514,0v1.51a.747.747,0,0,0,.757.737h1.1a.737.737,0,1,0,0-1.474Z" transform="translate(-356.956 -317.843)"/><ellipse class="b" cx="0.674" cy="0.984" rx="0.674" ry="0.984" transform="translate(10.789 6.832)"/><ellipse class="b" cx="0.674" cy="0.656" rx="0.674" ry="0.656" transform="translate(7.418 10.113)"/><ellipse class="b" cx="0.674" cy="0.984" rx="0.674" ry="0.984" transform="translate(4.046 6.832)"/><ellipse class="b" cx="0.674" cy="0.656" rx="0.674" ry="0.656" transform="translate(4.046 10.113)"/><ellipse class="b" cx="0.674" cy="0.984" rx="0.674" ry="0.984" transform="translate(4.046 13.394)"/><ellipse class="b" cx="0.674" cy="0.984" rx="0.674" ry="0.984" transform="translate(7.418 13.394)"/><ellipse class="b" cx="0.674" cy="0.984" rx="0.674" ry="0.984" transform="translate(7.418 6.832)"/></g></g></svg>