<svg xmlns="http://www.w3.org/2000/svg" width="21.714" height="19" viewBox="0 0 21.714 19"><defs><style>.a{fill:#24c599;}</style></defs><path class="a" d="M20.078,7.011,18.555,1.935A2.7,2.7,0,0,0,15.954,0H5.76a2.7,2.7,0,0,0-2.6,1.935L1.637,7.011A2.716,2.716,0,0,0,0,9.5v5.429a1.357,1.357,0,0,0,1.357,1.357h0v1.357A1.357,1.357,0,0,0,2.714,19H4.071a1.357,1.357,0,0,0,1.357-1.357V16.286H16.286v1.357A1.357,1.357,0,0,0,17.643,19H19a1.357,1.357,0,0,0,1.357-1.357V16.286h0a1.357,1.357,0,0,0,1.357-1.357V9.5a2.716,2.716,0,0,0-1.637-2.489ZM5.76,2.714H15.954l1.221,4.071H4.538L5.76,2.714ZM5.429,12.893a1.357,1.357,0,1,1,1.357-1.357A1.357,1.357,0,0,1,5.429,12.893Zm10.857,0a1.357,1.357,0,1,1,1.357-1.357A1.357,1.357,0,0,1,16.286,12.893Z" transform="translate(0)"/></svg>