<svg xmlns="http://www.w3.org/2000/svg" width="21.714" height="14.929" viewBox="0 0 21.714 14.929"><defs><style>.a{fill:#24c599;}</style></defs><path class="a" d="M21.714,83.52V82.375A2.375,2.375,0,0,0,19.339,80H2.375A2.375,2.375,0,0,0,0,82.375V83.52a.212.212,0,0,0,.212.212H21.5A.212.212,0,0,0,21.714,83.52Z" transform="translate(0 -80)"/><path class="a" d="M0,200.212v7.252a2.375,2.375,0,0,0,2.375,2.375H19.339a2.375,2.375,0,0,0,2.375-2.375v-7.252A.212.212,0,0,0,21.5,200H.212A.212.212,0,0,0,0,200.212Zm5.429,5.556a.679.679,0,0,1-.679.679H4.071a.679.679,0,0,1-.679-.679v-.679a.679.679,0,0,1,.679-.679H4.75a.679.679,0,0,1,.679.679Z" transform="translate(0 -194.911)"/></svg>