<svg xmlns="http://www.w3.org/2000/svg" width="116" height="22" viewBox="0 0 116 22"><defs><style>.a,.b{fill:#989898;}.a{font-size:20px;font-family:Helvetica;letter-spacing:0.012em;}.c{fill:#fff;}</style></defs><g transform="translate(-142 -493)"><text class="a" transform="translate(186 510)"><tspan x="0" y="0">My trips</tspan></text><circle class="b" cx="11" cy="11" r="11" transform="translate(142 493)"/><path class="c" d="M10.616.153a.313.313,0,0,0-.343-.068L.192,4.31a.314.314,0,0,0,.05.595L4.635,5.928a.23.23,0,0,1,.171.171l1.05,4.426a.314.314,0,0,0,.279.24h.026a.313.313,0,0,0,.289-.192L10.684.5A.314.314,0,0,0,10.616.153Z" transform="translate(147 498.939)"/></g></svg>