<svg xmlns="http://www.w3.org/2000/svg" width="19.634" height="22.59" viewBox="0 0 19.634 22.59"><defs><style>.a{opacity:0.998;}.b{fill:#24c599;}</style></defs><g class="a" transform="translate(0)"><g transform="translate(0)"><path class="b" d="M56.21,2.8a10.009,10.009,0,0,0-13.883,0,9.365,9.365,0,0,0-2.875,6.756c0,5.163,5.016,9.457,7.71,11.763.374.321.7.6.955.832a1.726,1.726,0,0,0,2.3,0c.258-.234.581-.511.955-.832,2.695-2.307,7.71-6.6,7.71-11.763A9.365,9.365,0,0,0,56.21,2.8ZM50.477,20.324c-.383.328-.713.611-.986.858a.335.335,0,0,1-.446,0c-.272-.248-.6-.531-.986-.858-2.533-2.169-7.249-6.206-7.249-10.77a8.461,8.461,0,0,1,16.915,0C57.725,14.118,53.01,18.155,50.477,20.324Z" transform="translate(-39.451 0)"/></g><g transform="translate(5.491 4.983)"><path class="b" d="M164.9,112.938a4.212,4.212,0,1,0,4.326,4.21A4.274,4.274,0,0,0,164.9,112.938Zm0,7.1a2.888,2.888,0,1,1,2.967-2.887A2.931,2.931,0,0,1,164.9,120.036Z" transform="translate(-160.57 -112.938)"/></g></g></svg>