<svg xmlns="http://www.w3.org/2000/svg" width="203.687" height="29.601" viewBox="0 0 203.687 29.601"><defs><style>.a{fill:#24c599;}.b{fill:#fcfcfc;}</style></defs><g transform="translate(-161.806 -304.115)"><path class="a" d="M292.665,327.967v-10.5l7.917-7.917,15.813,17.64,16.026-17.64,7.917,7.658v10.756l-7.228,6.2V319.878L316.5,339.154l-16.78-19.275v14.112Z" transform="translate(-130.859 -5.437)"/><g transform="translate(227.895 312.37)"><path class="b" d="M112.615,417.626h5.665l2.185,8.482,2.169-8.482H128.3v13.941h-3.528V420.935l-2.718,10.632h-3.193l-2.713-10.632v10.632h-3.528Z" transform="translate(-112.615 -417.626)"/><path class="b" d="M193.158,417.626H204.7V420.6h-7.227v2.216h6.7v2.843h-6.7v2.748h7.436v3.157H193.158Z" transform="translate(-169.947 -417.626)"/><path class="b" d="M258.82,431.567V417.626H266a10.431,10.431,0,0,1,3.052.342,3.251,3.251,0,0,1,1.7,1.27,3.936,3.936,0,0,1-1.209,5.625,5.209,5.209,0,0,1-1.513.551,4.3,4.3,0,0,1,1.122.514,4.362,4.362,0,0,1,.689.733,5.477,5.477,0,0,1,.6.866l2.086,4.04h-4.868l-2.3-4.26a3.253,3.253,0,0,0-.78-1.075,1.81,1.81,0,0,0-1.056-.323h-.38v5.658Zm4.327-8.292h1.816a6.472,6.472,0,0,0,1.141-.191,1.139,1.139,0,0,0,.7-.437,1.412,1.412,0,0,0-.157-1.845,2.588,2.588,0,0,0-1.607-.361h-1.892Z" transform="translate(-216.687 -417.626)"/><path class="b" d="M327.781,417.626h11.544V420.6H332.1v2.216h6.7v2.843h-6.7v2.748h7.436v3.157H327.781Z" transform="translate(-265.775 -417.626)"/><path class="b" d="M393.343,417.626h4.022l5.249,7.713v-7.713h4.061v13.941h-4.061l-5.221-7.654v7.654h-4.051Z" transform="translate(-312.444 -417.626)"/><path class="b" d="M462.765,417.626H475.86v3.442h-4.393v10.5h-4.308v-10.5h-4.393Z" transform="translate(-361.86 -417.626)"/><path class="b" d="M532.188,417.626h4.317v13.941h-4.317Z" transform="translate(-411.277 -417.626)"/><path class="b" d="M575.114,417.626h4.317v13.941h-4.317Z" transform="translate(-441.833 -417.626)"/></g></g></svg>