<svg xmlns="http://www.w3.org/2000/svg" width="44.509" height="39.206" viewBox="0 0 44.509 39.206"><defs><style>.a{fill:#24c599;}</style></defs><g transform="translate(-232.833 -730.501)"><g transform="translate(232.833 730.501)"><path d="M260.05,730.5h1.09a1.744,1.744,0,0,0,.384.018,15.772,15.772,0,0,1,3.549.462,19.641,19.641,0,0,1,8.062,4.009,18.3,18.3,0,0,1,1.408,1.281,19.722,19.722,0,0,1,3.192,4.241c.043.078.127.159.04.262a.52.52,0,0,1-.251.034H273.63a.577.577,0,0,1-.267-.036,4.029,4.029,0,0,1-.44-.539,13.1,13.1,0,0,0-1.143-1.283,16.159,16.159,0,0,0-3.656-2.731,15.718,15.718,0,0,0-4.568-1.627,16.353,16.353,0,0,0-1.872-.238,17.043,17.043,0,0,0-1.922-.019,14.481,14.481,0,0,0-2.627.356,15.6,15.6,0,0,0-3.752,1.358,15.773,15.773,0,0,0-3.224,2.2,16.13,16.13,0,0,0-2.172,2.34.681.681,0,0,1-.159.177.559.559,0,0,1-.267.037H243.67a.562.562,0,0,1-.25-.031c-.1-.106,0-.192.04-.273q.381-.685.816-1.336a20.083,20.083,0,0,1,1.794-2.288,19.516,19.516,0,0,1,2.431-2.25,19.76,19.76,0,0,1,2.954-1.909,19.44,19.44,0,0,1,6.379-2.062,13.759,13.759,0,0,1,1.829-.139A1.76,1.76,0,0,0,260.05,730.5Z" transform="translate(-238.326 -730.501)"/><path class="a" d="M272.305,751.818a.061.061,0,0,0,.031,0,.307.307,0,0,0,.182.018h4.631a.514.514,0,0,1,.188.012c.022.076-.034.127-.067.182q-.909,1.568-1.82,3.133c-.294.5-.592,1.007-.881,1.515a.252.252,0,0,1-.256.139q-4.912-.006-9.824,0a.736.736,0,0,1-.1,0,.186.186,0,0,0-.2.11c-.2.33-.409.654-.615.981L255.2,771.231c-.03.047-.062.094-.1.147a.261.261,0,0,1-.094-.115q-3.984-6.339-7.967-12.679c-.341-.543-.684-1.085-1.017-1.632a.27.27,0,0,0-.271-.147c-3.263,0-6.526,0-9.79.009a.416.416,0,0,1-.419-.247c-.595-1.051-1.2-2.1-1.8-3.142l-.849-1.474-.054-.1a.481.481,0,0,1,.205-.019h4.649a.308.308,0,0,0,.182-.018.058.058,0,0,0,.03,0,.3.3,0,0,0,.166.02h4.1a.368.368,0,0,0,.183-.022.864.864,0,0,1,.186-.015c1.952,0,3.9,0,5.857,0a.471.471,0,0,1,.46.267c1.228,2.075,2.472,4.142,3.71,6.212q1.2,2.008,2.408,4.015a.564.564,0,0,1,.111.232l4.288-7.148c.666-1.109,1.335-2.217,1.994-3.33a.445.445,0,0,1,.438-.246c1.958.006,3.916,0,5.874,0a.861.861,0,0,1,.186.015.369.369,0,0,0,.183.022h4.1A.3.3,0,0,0,272.305,751.818Z" transform="translate(-232.833 -741.595)"/><path d="M258.792,788.083a.791.791,0,0,0-.1-.01q-.688.019-1.376,0a.8.8,0,0,0-.1.01,18.084,18.084,0,0,1-2.57-.268,19.331,19.331,0,0,1-4.917-1.54,19.552,19.552,0,0,1-11.213-15.669,20.364,20.364,0,0,1-.086-3.179c.023-.493.072-.984.135-1.474.007-.056.02-.111.031-.171h3.776a1.4,1.4,0,0,1-.044.4,16.138,16.138,0,0,0-.134,3.327,15.628,15.628,0,0,0,.93,4.445,15.844,15.844,0,0,0,30.624-3.648,16.405,16.405,0,0,0,.088-2.516,14.257,14.257,0,0,0-.185-1.81.533.533,0,0,1-.014-.185c.126-.023,3.588-.028,3.781,0,.05.254.072.514.1.773a19.994,19.994,0,0,1,.078,2.721,19.409,19.409,0,0,1-1.207,6.045,19.635,19.635,0,0,1-13.228,12.092,18.608,18.608,0,0,1-2.988.564C259.709,788.031,259.252,788.076,258.792,788.083Z" transform="translate(-235.734 -748.876)"/></g></g></svg>