<svg xmlns="http://www.w3.org/2000/svg" width="208.854" height="48.258" viewBox="0 0 208.854 48.258"><defs><style>.a{fill:#fff;}.b{fill:#8c8c8c;}.c{fill:#24c599;}</style></defs><g transform="translate(61.037 6.172)"><g transform="translate(0)"><path class="a" d="M362.874,770.75v-9.442q0-3.063-3-3.064h-2.793V770.75h-5.8V758.244h-5.726V770.75h-5.865V752.766h20.319q4.328,0,6.493,2.234a8.747,8.747,0,0,1,2.165,6.343v9.406Z" transform="translate(-339.692 -745.81)"/><path class="a" d="M404.73,770.75a10.443,10.443,0,0,1-3.736-.649,8.8,8.8,0,0,1-2.967-1.838,8.306,8.306,0,0,1-1.955-2.847,9.927,9.927,0,0,1,0-7.316,8.313,8.313,0,0,1,1.955-2.847,8.8,8.8,0,0,1,2.967-1.838,10.455,10.455,0,0,1,3.736-.649h4.434a7.239,7.239,0,0,1,2.618.432,5.278,5.278,0,0,1,1.868,1.189,4.74,4.74,0,0,1,1.117,1.82,7.087,7.087,0,0,1,.366,2.324,4.547,4.547,0,0,1-1.326,3.568,6.472,6.472,0,0,1-4.364,1.19h-6.215v-3.28h4.992q1.362,0,1.362-1.261a1.176,1.176,0,0,0-1.327-1.333h-3.561a3.227,3.227,0,0,0-2.549,1.117,4.667,4.667,0,0,0-.977,3.172,4.317,4.317,0,0,0,.977,3.081,3.358,3.358,0,0,0,2.549,1.027h9.5v4.938Z" transform="translate(-363.569 -745.81)"/><path class="a" d="M434.858,770.75v-9.406a8.66,8.66,0,0,1,2.2-6.343q2.2-2.234,6.493-2.234h4.888v5.478h-4.748q-3,0-3,3.064v9.442Z" transform="translate(-380.5 -745.81)"/><path class="a" d="M471.108,770.75a10.443,10.443,0,0,1-3.736-.649,8.8,8.8,0,0,1-2.967-1.838,8.3,8.3,0,0,1-1.955-2.847,9.928,9.928,0,0,1,0-7.316,8.306,8.306,0,0,1,1.955-2.847,8.8,8.8,0,0,1,2.967-1.838,10.455,10.455,0,0,1,3.736-.649h4.434a7.24,7.24,0,0,1,2.618.432,5.279,5.279,0,0,1,1.868,1.189,4.747,4.747,0,0,1,1.117,1.82,7.1,7.1,0,0,1,.366,2.324,4.547,4.547,0,0,1-1.326,3.568,6.472,6.472,0,0,1-4.364,1.19h-6.215v-3.28H474.6q1.362,0,1.362-1.261a1.176,1.176,0,0,0-1.327-1.333h-3.561a3.227,3.227,0,0,0-2.549,1.117,4.667,4.667,0,0,0-.977,3.172,4.317,4.317,0,0,0,.977,3.081,3.358,3.358,0,0,0,2.549,1.027h9.5v4.938Z" transform="translate(-392.032 -745.81)"/><path class="a" d="M516.274,770.75v-9.442q0-3.063-3.038-3.064h-5.83V770.75h-5.865V752.766h11.836q4.328,0,6.528,2.234a8.66,8.66,0,0,1,2.2,6.343v9.406Z" transform="translate(-409.094 -745.81)"/><path class="a" d="M549.642,767.188a6.19,6.19,0,0,1-4.765-1.712,6.913,6.913,0,0,1-1.589-4.883V744.087h5.8V749.2h6.982v4.974h-6.982v5.947a1.85,1.85,0,0,0,2.06,2.126h4.748v4.938Z" transform="translate(-426.996 -742.248)"/><path class="a" d="M573.812,746.159a2.675,2.675,0,0,1-1.9-.7,2.511,2.511,0,0,1-.75-1.928,2.422,2.422,0,0,1,.75-1.856,2.675,2.675,0,0,1,1.9-.7h.8a2.613,2.613,0,0,1,1.885.7,2.453,2.453,0,0,1,.733,1.856,2.544,2.544,0,0,1-.733,1.928,2.613,2.613,0,0,1-1.885.7Zm-2.549,19.75V747.925h5.83v17.984Z" transform="translate(-438.947 -740.969)"/><path class="a" d="M590.5,746.159a2.674,2.674,0,0,1-1.9-.7,2.512,2.512,0,0,1-.751-1.928,2.423,2.423,0,0,1,.751-1.856,2.674,2.674,0,0,1,1.9-.7h.8a2.615,2.615,0,0,1,1.885.7,2.453,2.453,0,0,1,.733,1.856,2.544,2.544,0,0,1-.733,1.928,2.615,2.615,0,0,1-1.885.7Zm-2.549,19.75V747.925h5.83v17.984Z" transform="translate(-446.102 -740.969)"/></g></g><path class="b" d="M350.4,771.418l.007-.073h.971A2.23,2.23,0,0,1,350.4,771.418Z" transform="translate(-283.248 -747.262)"/><path class="b" d="M357.612,771.345l.007.073a2.221,2.221,0,0,1-.977-.073Z" transform="translate(-285.924 -747.262)"/><g transform="translate(0)"><path class="a" d="M263.257,730.5h1.3a2.016,2.016,0,0,0,.458.022,18.252,18.252,0,0,1,4.231.568,22.773,22.773,0,0,1,4.7,1.7,23.359,23.359,0,0,1,4.912,3.235,22.077,22.077,0,0,1,1.679,1.577,24.223,24.223,0,0,1,3.806,5.221c.051.1.151.2.048.322a.6.6,0,0,1-.3.041q-2.322,0-4.644,0a.669.669,0,0,1-.318-.044,4.936,4.936,0,0,1-.524-.663,15.972,15.972,0,0,0-1.362-1.579,19.327,19.327,0,0,0-4.36-3.361,18.363,18.363,0,0,0-5.446-2,18.917,18.917,0,0,0-2.232-.293,19.681,19.681,0,0,0-2.292-.023,16.762,16.762,0,0,0-3.132.439,18.224,18.224,0,0,0-4.474,1.671,18.794,18.794,0,0,0-3.845,2.713,19.621,19.621,0,0,0-2.59,2.88.831.831,0,0,1-.189.218.648.648,0,0,1-.318.046q-2.32,0-4.64,0a.651.651,0,0,1-.3-.038c-.117-.131-.006-.237.048-.336q.454-.843.973-1.644a24.626,24.626,0,0,1,2.139-2.816,23.691,23.691,0,0,1,6.421-5.12,22.678,22.678,0,0,1,7.607-2.538,15.909,15.909,0,0,1,2.18-.172A2.034,2.034,0,0,0,263.257,730.5Z" transform="translate(-237.354 -730.501)"/><path class="c" d="M279.9,751.822a.07.07,0,0,0,.037,0c.069.046.145.022.217.022l5.522,0a.6.6,0,0,1,.224.015c.026.094-.041.156-.08.224q-1.084,1.93-2.17,3.857c-.351.621-.706,1.24-1.051,1.864a.3.3,0,0,1-.306.172q-5.857-.007-11.714,0a.85.85,0,0,1-.122,0,.22.22,0,0,0-.243.135c-.239.406-.488.8-.733,1.207L259.5,775.717c-.036.058-.074.116-.117.181a.319.319,0,0,1-.112-.141q-4.751-7.8-9.5-15.606c-.407-.668-.816-1.335-1.212-2.009a.32.32,0,0,0-.323-.181c-3.891,0-7.782,0-11.673.01a.494.494,0,0,1-.5-.3c-.709-1.294-1.433-2.58-2.152-3.868l-1.013-1.815c-.019-.035-.038-.071-.064-.12a.557.557,0,0,1,.244-.023l5.543,0c.072,0,.149.024.217-.022a.067.067,0,0,0,.036,0,.342.342,0,0,0,.2.024h4.887a.426.426,0,0,0,.219-.027,1,1,0,0,1,.222-.018c2.328,0,4.656,0,6.983,0a.559.559,0,0,1,.548.328c1.465,2.554,2.947,5.1,4.423,7.646q1.433,2.472,2.871,4.942a.7.7,0,0,1,.133.285l5.113-8.8c.794-1.366,1.592-2.729,2.377-4.1a.528.528,0,0,1,.522-.3c2.335.008,4.669,0,7,0a1,1,0,0,1,.222.018.427.427,0,0,0,.219.027H279.7A.342.342,0,0,0,279.9,751.822Z" transform="translate(-232.833 -739.24)"/><path class="a" d="M262.714,793.233a.908.908,0,0,0-.12-.012q-.82.023-1.641,0a.918.918,0,0,0-.12.012,20.907,20.907,0,0,1-3.064-.33,22.529,22.529,0,0,1-5.863-1.9,24,24,0,0,1-12.7-15.586,25,25,0,0,1-.668-3.7,25.874,25.874,0,0,1-.1-3.913c.028-.607.086-1.211.16-1.814.008-.068.024-.136.037-.211h4.5a1.78,1.78,0,0,1-.053.491,20.5,20.5,0,0,0-.159,4.1,19.774,19.774,0,0,0,1.109,5.471A19.165,19.165,0,0,0,257.371,788.1a18.2,18.2,0,0,0,5.438.5,19.015,19.015,0,0,0,16.934-13.436,20.147,20.147,0,0,0,.8-3.818,20.85,20.85,0,0,0,.1-3.1,18.09,18.09,0,0,0-.22-2.228.679.679,0,0,1-.017-.228c.15-.028,4.278-.035,4.508-.006.06.313.086.633.115.951a25.407,25.407,0,0,1,.092,3.349,24.564,24.564,0,0,1-1.439,7.44,23.709,23.709,0,0,1-15.773,14.884,21.575,21.575,0,0,1-3.563.694C263.808,793.17,263.262,793.226,262.714,793.233Z" transform="translate(-235.221 -744.975)"/></g></svg>