<svg xmlns="http://www.w3.org/2000/svg" width="21.949" height="23.778" viewBox="0 0 21.949 23.778"><defs><style>.a{fill:#ef0000;}</style></defs><g transform="translate(0)"><path class="a" d="M202.827,12.8a1.855,1.855,0,0,0,1.829-1.829V1.829a1.757,1.757,0,0,0-.543-1.286,1.794,1.794,0,0,0-2.572,0A1.757,1.757,0,0,0,201,1.829v9.146a1.854,1.854,0,0,0,1.829,1.829Z" transform="translate(-191.853 0)"/><path class="a" d="M39.074,77.539a10.766,10.766,0,0,0-3.237-3.858,1.775,1.775,0,0,0-1.358-.357,1.694,1.694,0,0,0-1.2.714,1.739,1.739,0,0,0-.35,1.35,1.778,1.778,0,0,0,.707,1.208A7.3,7.3,0,0,1,35.8,79.182a7.287,7.287,0,0,1,.186,6.095,7.246,7.246,0,0,1-3.9,3.9,7.236,7.236,0,0,1-5.673,0,7.245,7.245,0,0,1-3.9-3.9,7.286,7.286,0,0,1,.186-6.095A7.3,7.3,0,0,1,24.863,76.6a1.78,1.78,0,0,0,.707-1.208,1.739,1.739,0,0,0-.35-1.35,1.689,1.689,0,0,0-1.193-.714,1.807,1.807,0,0,0-1.365.357A10.909,10.909,0,0,0,19.147,86.7a10.842,10.842,0,0,0,5.845,5.844,10.832,10.832,0,0,0,8.517,0A10.839,10.839,0,0,0,39.352,86.7a10.678,10.678,0,0,0,.871-4.258A10.81,10.81,0,0,0,39.074,77.539Z" transform="translate(-18.275 -69.637)"/></g></svg>