<svg xmlns="http://www.w3.org/2000/svg" width="80" height="80" viewBox="0 0 80 80"><defs><style>.a{fill:#24c599;}.b{fill:#fff;stroke:#fff;}</style></defs><g transform="translate(-167 -761)"><rect class="a" width="80" height="80" rx="40" transform="translate(167 761)"/><g transform="translate(192.392 786.392)"><path class="b" d="M13.182,0A13.182,13.182,0,1,0,26.364,13.182,13.2,13.2,0,0,0,13.182,0Zm0,23.93A10.748,10.748,0,1,1,23.93,13.182,10.761,10.761,0,0,1,13.182,23.93Z"/><g transform="translate(20.523 20.523)"><path class="b" d="M360.1,358.379l-6.976-6.976a1.217,1.217,0,0,0-1.721,1.721l6.976,6.976a1.217,1.217,0,0,0,1.721-1.721Z" transform="translate(-351.046 -351.046)"/></g></g></g></svg>