<svg xmlns="http://www.w3.org/2000/svg" width="79.16" height="24" viewBox="0 0 79.16 24"><defs><style>.a{fill:#3c58bf;}.b{fill:#293688;}.c{fill:#ffbc00;}.d{fill:#f7981d;}.e{fill:#ed7c00;}.f{fill:#051244;}</style></defs><path class="a" d="M0,22.617,4.021,0H10.3l-3.9,22.617Z" transform="translate(29.025 0.754)"/><path class="b" d="M0,22.617,5.152,0H10.3l-3.9,22.617Z" transform="translate(29.025 0.754)"/><path class="a" d="M19.225,1.005A15.937,15.937,0,0,0,13.445,0C7.162,0,2.639,3.141,2.639,7.665c0,3.393,3.141,5.152,5.654,6.283s3.267,1.885,3.267,2.89c0,1.508-2.01,2.262-3.77,2.262a13.657,13.657,0,0,1-6.031-1.257l-.88-.377L0,22.617a20.373,20.373,0,0,0,7.162,1.257c6.66,0,11.057-3.141,11.057-7.916,0-2.639-1.633-4.649-5.4-6.283-2.262-1.131-3.644-1.759-3.644-2.89,0-1.005,1.131-2.01,3.644-2.01a11.525,11.525,0,0,1,4.775.88l.628.251,1.005-4.9Z" transform="translate(38.952)"/><path class="b" d="M19.225,1.005A15.937,15.937,0,0,0,13.445,0C7.162,0,3.77,3.141,3.77,7.665c0,3.393,2.01,5.152,4.523,6.283s3.267,1.885,3.267,2.89c0,1.508-2.01,2.262-3.77,2.262a13.657,13.657,0,0,1-6.031-1.257l-.88-.377L0,22.617a20.373,20.373,0,0,0,7.162,1.257c6.66,0,11.057-3.141,11.057-7.916,0-2.639-1.633-4.649-5.4-6.283-2.262-1.131-3.644-1.759-3.644-2.89,0-1.005,1.131-2.01,3.644-2.01a11.525,11.525,0,0,1,4.775.88l.628.251,1.005-4.9Z" transform="translate(38.952)"/><path class="a" d="M16.837,22.618l-.753-3.77H8.042l-1.257,3.77H0L9.424,1.633C10.052.125,11.184,0,12.691,0h4.9l5.277,22.618Z" transform="translate(56.292 0.754)"/><path class="b" d="M16.837,22.618l-.753-3.77H8.042l-1.257,3.77H0L10.932,1.633C11.559.125,12.691,0,14.2,0h3.392l5.277,22.618Z" transform="translate(56.292 0.754)"/><path class="a" d="M9.424,15.706,8.8,12.439C7.665,8.67,4.021,4.523,0,2.513l5.654,20.1h6.785L22.617,0H15.832Z" transform="translate(8.042 0.88)"/><path class="b" d="M9.424,15.706,8.8,12.439C7.665,8.67,4.021,4.523,0,2.513l5.654,20.1h6.785L22.617,0H17.089Z" transform="translate(8.042 0.88)"/><path class="c" d="M0,0,1.131.251C9.173,2.136,14.7,6.911,16.837,12.565L14.576,1.885C14.2.377,13.068,0,11.686,0H0Z" transform="translate(0 0.754)"/><path class="d" d="M0,0H0C8.042,1.885,14.7,6.785,16.837,12.439L14.7,3.518a3.067,3.067,0,0,0-3.016-2.387Z" transform="translate(0 0.754)"/><path class="e" d="M0,0H0C8.042,1.885,14.7,6.785,16.837,12.439l-1.508-4.9c-.377-1.508-.88-3.016-2.639-3.644Z" transform="translate(0 0.754)"/><g transform="translate(8.167 3.268)"><path class="f" d="M15.581,12.565,11.309,8.293,9.3,13.068,8.8,9.926C7.665,6.157,4.021,2.01,0,0L5.654,20.1h6.785Z"/><path class="f" d="M6.408,5.529,1.005,0,0,5.529Z" transform="translate(20.858 14.576)"/><path class="f" d="M10.932,0h0c.5.5.754.88.628,1.382,0,1.508-2.01,2.262-3.77,2.262A13.657,13.657,0,0,1,1.759,2.387L.88,2.01,0,7.162A20.374,20.374,0,0,0,7.162,8.419c4.021,0,7.288-1.131,9.173-3.141Z" transform="translate(30.785 12.314)"/><path class="f" d="M0,16.46H5.906l1.257-3.77H15.2l.754,3.77h6.031L19.853,7.288,12.314,0l.377,2.01S13.947,7.665,14.2,8.921H8.921c.5-1.257,2.513-6.66,2.513-6.66s.5-1.382.88-2.262" transform="translate(49.004 3.644)"/></g></svg>