<svg xmlns="http://www.w3.org/2000/svg" width="19.162" height="19.108" viewBox="0 0 19.162 19.108"><defs><style>.a{fill:#24c599;}</style></defs><g transform="translate(0 0)"><g transform="translate(0 0)"><path class="a" d="M415.54,376.874a.75.75,0,0,0-1.047.153c-.136.182-.281.36-.432.53a.748.748,0,0,0,1.122.989c.178-.2.35-.413.511-.628A.745.745,0,0,0,415.54,376.874Z" transform="translate(-398.384 -362.667)"/><path class="a" d="M463.613,286.442a.749.749,0,0,0-.891.571c-.048.222-.107.444-.174.66a.748.748,0,0,0,1.43.441c.08-.257.149-.52.206-.783A.746.746,0,0,0,463.613,286.442Z" transform="translate(-445.205 -275.735)"/><path class="a" d="M335.078,442.288c-.2.111-.4.214-.612.307a.747.747,0,0,0,.616,1.361c.246-.111.49-.233.725-.364a.747.747,0,1,0-.73-1.3Z" transform="translate(-321.524 -425.69)"/><path class="a" d="M159.768,76.746v5.662l-2.745,2.737a.747.747,0,0,0,1.059,1.056l2.964-2.956a.745.745,0,0,0,.219-.528V76.746a.749.749,0,0,0-1.5,0Z" transform="translate(-150.935 -73.164)"/><path class="a" d="M18.414,1.6a.747.747,0,0,0-.749.746V4.424A9.6,9.6,0,0,0,2.806,2.8a9.554,9.554,0,0,0,6.775,16.31h.037c.27,0,.542-.011.81-.034a.746.746,0,1,0-.125-1.488c-.226.019-.457.028-.685.028H9.581A8.061,8.061,0,1,1,16.54,5.449H14.482a.746.746,0,1,0,0,1.493h2.285a2.386,2.386,0,0,0,1.245-.349.748.748,0,0,0,.067-.043,2.386,2.386,0,0,0,1.083-2v-2.2A.747.747,0,0,0,18.414,1.6Z"/></g></g></svg>